<svg width="87" height="122" fill="none" xmlns="http://www.w3.org/2000/svg"><g opacity=".2"><rect width="21" height="2" rx="1" fill="#555F6A"/><rect y="60" width="24" height="2" rx="1" fill="#92A1B2" fill-opacity=".52"/><rect x="42" y="72" width="24" height="2" rx="1" transform="rotate(-180 42 72)" fill="#92A1B2" fill-opacity=".52"/><rect x="28" y="60" width="14" height="2" rx="1" fill="#92A1B2" fill-opacity=".52"/><rect x="14" y="72" width="14" height="2" rx="1" transform="rotate(-180 14 72)" fill="#92A1B2" fill-opacity=".52"/><rect x="46" y="60" width="33" height="2" rx="1" fill="#92A1B2" fill-opacity=".52"/><rect y="20" width="12" height="2" rx="1" fill="#555F6A"/><rect y="80" width="12" height="2" rx="1" fill="#555F6A"/><rect y="30" width="12" height="2" rx="1" fill="#555F6A"/><rect y="40" width="12" height="2" rx="1" fill="#555F6A"/><rect y="110" width="12" height="2" rx="1" fill="#555F6A"/><rect x="16" y="20" width="22" height="2" rx="1" fill="#3A8E51"/><rect x="42" y="20" width="27" height="2" rx="1" fill="#3A8E51"/><rect y="50" width="12" height="2" rx="1" fill="#555F6A"/><rect x="42" y="50" width="17" height="2" rx="1" fill="#555F6A"/><rect x="37" y="40" width="32" height="2" rx="1" fill="#555F6A"/><rect y="120" width="12" height="2" rx="1" fill="#555F6A"/><rect x="16" y="30" width="32" height="2" rx="1" fill="#3A8E51"/><rect x="16" y="40" width="17" height="2" rx="1" fill="#3A8E51"/><rect x="52" y="30" width="11" height="2" rx="1" fill="#3A8E51"/><rect x="16" y="110" width="22" height="2" rx="1" fill="#3A8E51"/><rect y="90" width="12" height="2" rx="1" fill="#555F6A"/><rect y="100" width="12" height="2" rx="1" fill="#555F6A"/><rect x="16" y="90" width="22" height="2" rx="1" fill="#3A8E51"/><rect x="42" y="90" width="16" height="2" rx="1" fill="#3A8E51"/><rect x="52" y="80" width="35" height="2" rx="1" fill="#3A8E51"/><rect x="16" y="50" width="22" height="2" rx="1" fill="#873A48"/><rect x="16" y="120" width="17" height="2" rx="1" fill="#873A48"/><rect x="16" y="80" width="32" height="2" rx="1" fill="#3A8E51"/><rect x="16" y="100" width="17" height="2" rx="1" fill="#3A8E51"/></g></svg>