<svg width="61" height="222" fill="none" xmlns="http://www.w3.org/2000/svg"><g opacity=".2" fill="#616974"><rect width="32" height="2" rx="1"/><rect x="13" y="10" width="14" height="2" rx="1"/><rect x="13" y="70" width="14" height="2" rx="1"/><rect width="14" height="2" rx="1" transform="matrix(1 0 0 -1 13 152)"/><rect x="13" y="110" width="14" height="2" rx="1"/><rect x="13" y="210" width="14" height="2" rx="1"/><rect x="13" y="20" width="28" height="2" rx="1"/><rect width="28" height="2" rx="1" transform="matrix(1 0 0 -1 13 142)"/><rect x="13" y="100" width="28" height="2" rx="1"/><rect x="13" y="30" width="22" height="2" rx="1"/><rect x="26" y="200" width="22" height="2" rx="1"/><rect x="13" y="80" width="22" height="2" rx="1"/><rect x="13" y="160" width="22" height="2" rx="1"/><rect x="13" y="170" width="22" height="2" rx="1"/><rect x="13" y="180" width="17" height="2" rx="1"/><rect x="13" y="120" width="22" height="2" rx="1"/><rect x="13" y="220" width="22" height="2" rx="1"/><rect x="26" y="40" width="22" height="2" rx="1"/><rect x="26" y="60" width="35" height="2" rx="1"/><rect x="26" y="50" width="17" height="2" rx="1"/><rect x="26" y="190" width="17" height="2" rx="1"/><rect y="90" width="19" height="2" rx="1"/><rect y="130" width="26" height="2" rx="1"/></g></svg>