<svg width="200" height="128" fill="none" xmlns="http://www.w3.org/2000/svg"><g opacity=".2"><rect opacity=".5" x=".5" y=".5" width="199" height="16" rx="1.5" stroke="#555F6A"/><rect x="10" y="8" width="12" height="1" rx=".5" fill="#555F6A"/><rect opacity=".5" x=".5" y="100.5" width="73" height="115" rx="1.5" transform="rotate(-90 .5 100.5)" stroke="#555F6A"/><rect x="10" y="36" width="12" height="1" rx=".5" fill="#555F6A"/><rect x="10" y="51" width="19" height="1" rx=".5" fill="#555F6A"/><rect x="17" y="59" width="17" height="1" rx=".5" fill="#555F6A"/><rect x="10" y="59" width="5" height="1" rx=".5" fill="#555F6A"/><rect x="31" y="51" width="11" height="1" rx=".5" fill="#555F6A"/><rect x="36" y="59" width="14" height="1" rx=".5" fill="#555F6A"/><rect opacity=".5" x=".5" y="111.5" width="56" height="16" rx="1.5" stroke="#3D9CB1"/><rect x="22" y="119" width="14" height="1" rx=".5" fill="#3D9CB1"/></g></svg>